<svg xmlns="http://www.w3.org/2000/svg" viewBox="0 0 727.32 641.03"><defs><style>.cls-1,.cls-5{fill:#d5ecf5;}.cls-1,.cls-18,.cls-3,.cls-8{opacity:0.4;}.cls-2{fill:#fff;}.cls-3,.cls-4{fill:#ffd488;}.cls-37,.cls-6{fill:#a8d7e5;}.cls-6{opacity:0.5;}.cls-19,.cls-20,.cls-33,.cls-36,.cls-38,.cls-41,.cls-45,.cls-48,.cls-49,.cls-50,.cls-7{fill:none;}.cls-7{stroke:#fff;stroke-width:5.27px;}.cls-33,.cls-38,.cls-45,.cls-48,.cls-49,.cls-50,.cls-7{stroke-linecap:round;stroke-linejoin:round;}.cls-9{fill:#392624;}.cls-10{fill:#66504f;}.cls-11{fill:#f7c4a5;}.cls-12,.cls-22{fill:#ff9976;}.cls-12,.cls-21{opacity:0.6;}.cls-13{fill:#ffc550;}.cls-14{fill:#fca915;}.cls-15{fill:#ffeac5;}.cls-16{fill:#a5a5a5;}.cls-17{fill:#898989;}.cls-18{fill:#efa003;}.cls-19,.cls-20{stroke:#efa003;}.cls-19,.cls-20,.cls-36,.cls-41{stroke-miterlimit:10;}.cls-19{stroke-width:0.94px;}.cls-20{stroke-width:3.91px;}.cls-23{opacity:0.3;}.cls-24{fill:#4f5eb7;}.cls-25{fill:#c5d0fc;}.cls-26{fill:#172975;}.cls-27{fill:#ffe8dc;}.cls-28{fill:#1e1312;}.cls-29{fill:#2a3993;}.cls-30{opacity:0.8;}.cls-31{fill:#2e3e99;}.cls-32{fill:#ffa910;}.cls-33{stroke:#1c2f7f;}.cls-34{fill:#e69056;}.cls-35{fill:#d3793c;}.cls-36{stroke:#fcb686;}.cls-38{stroke:#ffcb78;stroke-width:3px;}.cls-39{fill:#7689d6;}.cls-40{fill:#8c7c7c;}.cls-41,.cls-48,.cls-49,.cls-50{stroke:#392624;}.cls-42{fill:#d68a03;}.cls-43{fill:#eaeaea;}.cls-44{fill:#d1d1d1;}.cls-45{stroke:#ffe3b6;}.cls-45,.cls-50{stroke-width:4px;}.cls-46{fill:#ffe3b6;}.cls-47{fill:#686868;}.cls-48{stroke-width:7px;}.cls-49{stroke-width:2.93px;}.cls-51{fill:#ed970f;}</style></defs><title>Asset 1</title><g id="Layer_2" data-name="Layer 2"><g id="Layer_2-2" data-name="Layer 2"><path class="cls-1" d="M503.3,108.78A194.24,194.24,0,0,0,407.35,134h0l-.08.05q-8.33,4.71-16.12,10.2c-167.66,112.71-75.48,275.39-75.48,275.39a10.39,10.39,0,0,0,8.86-14.46c-10.32-24.11-28-77.68-13.17-136.66A196.35,196.35,0,0,0,308.13,304c0,107.79,87.38,195.17,195.17,195.17S698.46,411.74,698.46,304,611.08,108.78,503.3,108.78Z"/><ellipse class="cls-2" cx="394.44" cy="466.46" rx="14.46" ry="33.67" transform="translate(-109.72 121.51) rotate(-15.4)"/><ellipse class="cls-2" cx="414.91" cy="455.97" rx="5.58" ry="13" transform="translate(-106.2 126.57) rotate(-15.4)"/><path class="cls-3" d="M206.12,370.66A120.36,120.36,0,0,0,148.65,349h-.06c-3.93-.41-7.86-.61-11.79-.63-125-3.19-136.8,112-136.8,112a6.44,6.44,0,0,0,9.66-4.13C13.08,440.34,23.37,407,52,382.5a120.84,120.84,0,1,0,154.14-11.84Z"/><ellipse class="cls-4" cx="22.98" cy="512.23" rx="20.85" ry="8.95" transform="translate(-466.3 358.9) rotate(-70.03)"/><ellipse class="cls-4" cx="37.07" cy="514.26" rx="8.05" ry="3.46" transform="matrix(0.34, -0.94, 0.94, 0.34, -458.93, 373.49)"/><path class="cls-5" d="M381,346.46s-26.58-88.93,28.64-180.92a2.57,2.57,0,0,0-3.56-3.51c-78.84,48.43-49.18,182.38-49.18,182.38"/><path class="cls-5" d="M385.36,359.54s-37.29,37.78-30.45,174.53a2.07,2.07,0,0,1-4,.86c-45.4-114.6,3.68-180.52,3.68-180.52"/><path class="cls-6" d="M409.71,165.47c-55.22,92-28.64,180.92-28.64,180.92l4.36,13.08S348.14,397.26,355,534a2.07,2.07,0,0,1-4,.85c-3.61-9.12-6.62-17.93-9.11-26.42-1.32-116,31.26-149,31.26-149l-4.36-13.08S343.1,260.55,394.57,170.3A95.56,95.56,0,0,1,406.14,162,2.57,2.57,0,0,1,409.71,165.47Z"/><path class="cls-7" d="M352.89,317S344.08,254.52,366,209"/><g class="cls-8"><path class="cls-5" d="M210.39,588.42c6.72,11.88,18.87,19.87,31.66,24.64,28.89,10.78,61.07,7,91.2.46s60.21-15.56,91-14.85c38.78.9,75.91,17.26,114.68,18.54a149.39,149.39,0,0,0,69-14.45c7.42-3.54,15-8.26,18.12-15.89,5-12.41-4.25-26-14.62-34.42-26-21.14-62.88-28-94.72-17.63-17.1,5.58-32.8,15.75-50.59,18.38-19.66,2.9-39.27-3.73-58.73-7.73-14.65-3-29.55-4.53-44.42-6.06-35.26-3.61-73.51-6.57-103.55,12.23-2,1.26-4,2.6-5.91,3.94"/></g><path class="cls-9" d="M498.08,585.92c-1.49,1.6-3.7,2.26-5.81,2.83a231.6,231.6,0,0,1-64.11,7.93c-9.26-.16-19.11-1.1-26.43-6.78a9.74,9.74,0,0,1-3.37-4.11,10.51,10.51,0,0,1-.22-5.29s39.51,20.88,101.77-3.75C500.25,580,500.27,583.57,498.08,585.92Z"/><path class="cls-10" d="M499.91,576.75c-62.26,24.63-101.77,3.75-101.77,3.75,2.07-13.12,13.84-25.24,27.06-24,4.33.42,8.42,2.15,12.66,3.12a36.72,36.72,0,0,0,24.28-2.92l34.48,3.76A87.84,87.84,0,0,1,499.91,576.75Z"/><path class="cls-9" d="M683.8,587.71a10.56,10.56,0,0,1-1.32,5.13,9.85,9.85,0,0,1-4.16,3.31c-8.34,4-18.17,2.87-27.26,1.09a231.89,231.89,0,0,1-61-21.17c-1.94-1-4-2.11-5.09-4-1.65-2.76-.87-6.29.13-9.35C640.8,599.85,683.8,587.71,683.8,587.71Z"/><path class="cls-10" d="M683.8,587.71s-43,12.14-98.73-25a88.74,88.74,0,0,1,6.63-15.23L626.21,551A36.6,36.6,0,0,0,649.34,559c4.35-.06,8.71-.9,13-.39C675.56,560.13,684.53,574.44,683.8,587.71Z"/><ellipse class="cls-9" cx="479.7" cy="558.18" rx="20.97" ry="14.89"/><ellipse class="cls-9" cx="606.95" cy="547.36" rx="14.89" ry="20.97" transform="translate(-86.8 979.44) rotate(-73.96)"/><path class="cls-11" d="M459.77,523.78,467,553.93a12.62,12.62,0,0,0,13.5,9.62h0a12.63,12.63,0,0,0,10.93-16l-8.94-31.45Z"/><path class="cls-12" d="M456.29,509l7.25,30.15a12.63,12.63,0,0,0,13.5,9.62h0a12.64,12.64,0,0,0,10.93-16l-9-31.46Z"/><path class="cls-11" d="M627.83,512.83,620.59,543a12.63,12.63,0,0,1-13.51,9.63h0a12.64,12.64,0,0,1-10.93-16l9-31.46Z"/><path class="cls-12" d="M629.41,505.28l-7.24,30.15a12.63,12.63,0,0,1-13.5,9.62h0a12.63,12.63,0,0,1-10.93-16l8.94-31.46Z"/><path class="cls-13" d="M509.9,355.26S401.72,385,438.87,526a11.09,11.09,0,0,0,7.47,7.8,57.38,57.38,0,0,0,36.55-.79,11.14,11.14,0,0,0,7-12.69c-5-24.14-13.62-93.91,44.32-122.26"/><path class="cls-14" d="M490.05,520.23a11.16,11.16,0,0,1-7,12.7,54.66,54.66,0,0,1-18.31,3.39,52.31,52.31,0,0,0,7.12-2.1,11.13,11.13,0,0,0,7-12.69c-5-24.14-13.62-93.91,44.33-122.26a97.38,97.38,0,0,1,10.4-2.67l.78,1.37C476.43,426.32,485.08,496.1,490.05,520.23Z"/><path class="cls-13" d="M557.2,397.22s36.39,37.77,25.39,122.5a9.65,9.65,0,0,0,6,10.18,63.46,63.46,0,0,0,48.06,0,9.73,9.73,0,0,0,6.08-8.57c1-22.53-.49-104.47-66.05-165.89"/><path class="cls-14" d="M619.9,534.21a64.26,64.26,0,0,1-31.34-4.31,9.67,9.67,0,0,1-6-10.18c11-84.73-25.38-122.5-25.38-122.5l4.55-9.78,9.82,9.78S608,435,597,519.72a9.65,9.65,0,0,0,6,10.18A65,65,0,0,0,619.9,534.21Z"/><circle class="cls-13" cx="541.74" cy="355.34" r="45.43"/><path class="cls-14" d="M587.17,355.41a45.43,45.43,0,1,1-90.86,0,46.37,46.37,0,0,1,.46-6.5,45.44,45.44,0,0,0,89.94,0A46.37,46.37,0,0,1,587.17,355.41Z"/><path class="cls-15" d="M433.12,465.48c1.55-16.68,5.55-32.63,10.24-48.67.54-1.86-2.36-2.65-2.9-.8-4.76,16.31-8.77,32.52-10.34,49.47-.18,1.92,2.82,1.91,3,0Z"/><path class="cls-16" d="M102.07,603.73a196.14,196.14,0,0,0,28.61-53.82L143.51,558A53.19,53.19,0,0,0,154.07,546l6.3,2.08q16-35.26,33.21-70C230.49,508,267.9,538.32,295.44,577a579.78,579.78,0,0,1-191.79,27.18"/><path class="cls-17" d="M84,609a196.46,196.46,0,0,0,28.61-53.83l12.83,8.12A53.19,53.19,0,0,0,136,551.2l6.3,2.08q16-35.26,33.2-69.95c36.92,29.87,74.33,60.25,101.87,98.94A580.3,580.3,0,0,1,85.54,609.45"/><path class="cls-16" d="M2.82,587.88A196.05,196.05,0,0,0,41.73,541L52.65,551.5a53.28,53.28,0,0,0,12.79-9.69l5.75,3.31Q94,513.83,117.85,483.33c30.12,36.72,60.6,74,79.75,117.5A580.09,580.09,0,0,1,4.28,588.65"/><path class="cls-17" d="M52.3,597.82c15.31-13.49,22.34-35.49,32.76-53L96,555.33a53,53,0,0,0,12.78-9.69l5.76,3.31q22.79-31.31,46.66-61.79c30.12,36.72,5,47.91,24.19,91.37-64.51,6.81-69.91,34.14-133.07,19.29"/><circle class="cls-4" cx="135.5" cy="490.9" r="90.9"/><path class="cls-18" d="M143.09,582a90.93,90.93,0,0,1-91.28-55.05A90.93,90.93,0,0,0,189.65,418.39,90.9,90.9,0,0,1,143.09,582Z"/><circle class="cls-19" cx="135.5" cy="490.9" r="71.34"/><circle class="cls-20" cx="135.5" cy="490.9" r="80.61"/><path class="cls-11" d="M418.78,346.25c19.12-15.56,29.77-41.69,37.51-65.1,1.87-5.64.38-10.68,3.82-15.52s8.57-8.79,14.47-9.5,12.42,2.5,14.32,8.13c1.14,3.36.58,7-.13,10.49a125.77,125.77,0,0,1-41.2,69.74,27.35,27.35,0,0,1-6.33,4.36c-7.69,3.5-16.61.27-24.42-3"/><g class="cls-21"><path class="cls-22" d="M486.89,282.52a125.87,125.87,0,0,1-39.33,62,27.66,27.66,0,0,1-6.33,4.36,17.49,17.49,0,0,1-7.37,1.52c19.9-16.9,39.91-43.18,42.83-71.22C480.93,280,482.07,281.68,486.89,282.52Z"/></g><path class="cls-11" d="M570.93,266.94c7.92,14.74,8.39,32.43,5.91,49s-7.68,32.59-10.52,49.08c-.32,1.84-.5,4,.85,5.3a5.06,5.06,0,0,0,3.18,1.11c5.79.48,6.76,10.9,10.74,6.67,3.15-3.35,10-20.39,11.77-24.62l8.3-19.61c5.74-13.58,11.23-27.34,13.44-41.91s1.81-30.27-6.47-42.47"/><g class="cls-23"><path class="cls-22" d="M614.49,292.69c-2.22,14.57-7.48,28-13.22,41.57L593,353.88c-1.79,4.23-8.62,21.27-11.77,24.61-2.57,2.74-3.89-.65-6.06-3.52,3.44-6,8.45-18.44,10-22q4.14-9.81,8.29-19.61c5.74-13.58,12.53-27.33,14.75-41.9a62.39,62.39,0,0,0-6.57-38.86l6.68-2.74C616.52,262.08,616.7,278.12,614.49,292.69Z"/></g><path class="cls-24" d="M491.17,284c-6.12-1.56-19.24-3.12-25.35-4.68-4.06-1-8.29-2.16-11.42-4.94-6-5.28-6-14.52-4.66-22.38A110.25,110.25,0,0,1,485.36,188c10.95-9.63,24.37-17.19,38.92-18.24,12.64-.91,25.27,3.17,36.18,9.63q3.91,2.32,7.6,5a118.08,118.08,0,0,1,39.28,49.42c3.47,8.18,7.47,17.62,8.88,27.8a2.94,2.94,0,0,1-1.37,2.89c-5.86,3.68-14,6.65-18.27,8.27-13,4.93-17.9,5-31.75,5.37l13.9-10.05c6.47,11.22,2.17,25.9-.46,42.55l-4.83,22.5-5.78,24.58-8.08.36c-1.05,0-2.09.13-3.13.26a224.53,224.53,0,0,1-45.26,1.14c-3.84-.29-7.87-.75-11-3-6-4.27-6.42-12.91-6.31-20.3.19-12.56.07-25.23-2.39-37.55s-7.42-24.4-15.9-33.68"/><path class="cls-25" d="M486.81,185.82a112.3,112.3,0,0,0-37.18,63.47c-.19.94,1.26,1.34,1.45.39a111,111,0,0,1,36.79-62.8c.73-.62-.33-1.68-1.06-1.06Z"/><path class="cls-11" d="M530.8,182.09a7.67,7.67,0,0,0,2.56-7.27h0c-3.48-18.64,1.6-38.23,11.41-54.46a59.34,59.34,0,0,0,4.44-8,40.23,40.23,0,0,0,2.37-10.61q1.71-14.64,2.48-29.38c.13-2.52.17-5.15-1-7.37-1.47-2.81-4.53-4.35-7.38-5.74C534.79,54,524,48.26,512.51,44.59s-24.09-5.2-35.74-1.91-22.18,12-25.44,23.66a21.3,21.3,0,0,0-.53,10.18c1.49,6.85,7.15,12.17,8.9,19,2.22,8.64-2.3,17.78-.88,26.59,1.39,8.61,8.3,15.41,16,19.57s16.22,6.25,24.32,9.46l.05,0a63.23,63.23,0,0,1,4.14,26.36,7.62,7.62,0,0,0,3.2,6.72C511.2,187.49,520.19,191.06,530.8,182.09Z"/><g class="cls-21"><path class="cls-22" d="M533.37,174.86a7.67,7.67,0,0,1-2.56,7.27c-10.61,9-19.6,5.4-24.3,2.15a7.61,7.61,0,0,1-3.2-6.72c.06-.94,0,.94,0,0,5,.75,12.68-1.29,17.12-3.86,6.58-3.81,9-12.48,10.78-19.85.76-3,1.11-6.28,2.65-9a9.12,9.12,0,0,1,1.07-1.5,75.66,75.66,0,0,0-2.65,19.53A65.49,65.49,0,0,0,533.37,174.86Z"/></g><path class="cls-26" d="M532.58,174.9c1.28,12.94-26.71,16.22-27.06,2.7,0-1.93-3-1.94-3,0,.45,17.58,34.71,14,33.06-2.7-.19-1.91-3.19-1.93-3,0Z"/><path class="cls-22" d="M532.59,157.38A87,87,0,0,1,545,121a.75.75,0,0,0-1.3-.76,89,89,0,0,0-12.59,37.14c-.09,1,1.41,1,1.5,0Z"/><path class="cls-27" d="M459.41,95.68c1.85,8.84-2,17.52-.9,26.4.11,1,1.62,1,1.5,0-1.09-9,2.73-17.8.85-26.79-.2-1-1.64-.55-1.45.39Z"/><path class="cls-9" d="M488.48,79.17a22.71,22.71,0,0,0,9,0c2.55-.38,5.34-1,6.88-3,1.71-2.31,1.17-5.63-.16-8.19a5.45,5.45,0,0,0-1.22-1.67,4.49,4.49,0,0,0-4.75-.32,13.36,13.36,0,0,0-3.83,3.21L488.6,75.4c-.79.86-1.64,2.08-1.06,3.09s1.71,1,2.71.92"/><path class="cls-28" d="M472.53,23.47S442.8,26.7,430.58,10.9c0,0,22.75,10.78,48.22-.42C503.88-.55,534.33,45,534.33,45"/><path class="cls-9" d="M548.09,89.63s-3.69,22.52,7.85,32.48a47.49,47.49,0,0,1,2.3-36.72c9.44-18.67-24-43.74-24-43.74"/><path class="cls-9" d="M551.55,87.37s-3.69,22.52,7.86,32.48a47.45,47.45,0,0,1,2.29-36.72c9.44-18.66-24-43.74-24-43.74"/><path class="cls-9" d="M530.58,64s-7.13,5.62-5.47,19.45c.21,1.8-6.56,4.42-8.37,4.42l.92,7.26c-1.36,0-4.47-2.56-4.82-3.87-2.77-10.18,4.73-32.82,4.73-32.82"/><path class="cls-9" d="M540.37,98.92s-1.55,5.94,6.44,19.18l12.51-24.26-1.22-12"/><g class="cls-21"><path class="cls-22" d="M514.75,67.75a61.9,61.9,0,0,0-1.2,6.36,2.1,2.1,0,0,1-.55-.56,41,41,0,0,0-3.9-5.06A19.28,19.28,0,0,0,503.38,65c-8.06-3.53-16.36-3.5-25.08-2.38-7.55,1-15.47,2.19-23.05,1.49a6.33,6.33,0,0,1-2.93-.83,27.65,27.65,0,0,1,1.46-3.12A37.28,37.28,0,0,0,471.45,57c2.5-.18,5-.37,7.47-.52,11.07-.65,23.12.06,31.67,7.11A31.15,31.15,0,0,1,514.75,67.75Z"/></g><path class="cls-9" d="M552.75,105c-13.06-3.28-22.19-14.8-29.6-26-3-4.57-6-9.3-10.22-12.78-8.56-7-20.61-7.76-31.68-7.1s-22.47,2.3-33-1.13c-8.59-2.8-15.87-8.82-21.38-16s-9.42-15.42-12.8-23.8a64,64,0,0,0,22.67,8.42c5.31.89,10.86,1.08,16-.59,10.08-3.31,16.77-13.19,26.6-17.15a37.26,37.26,0,0,1,13.17-2.29,70.93,70.93,0,0,1,72,78.43c-.82,7.72-3.44,16-10.07,20.08"/><path class="cls-9" d="M464,52.86s-24.35,6.62-37.4-5.06c0,0,21,18.5,45,5.65"/><path class="cls-9" d="M472.42,52.65S449.86,64,434.76,55.07c0,0,26.9,14.25,47.84-3.08"/><ellipse class="cls-11" cx="528.67" cy="91.74" rx="13.1" ry="15.96"/><g class="cls-21"><path class="cls-22" d="M469.35,85.23a2.81,2.81,0,0,1-1.11,2c-2.4,2.11-5.94,2.23-9.13,1.93-.75-.07-1.5-.16-2.24-.27-.36-.66-.74-1.3-1.13-2a25.3,25.3,0,0,0,12.93-2.12,4.14,4.14,0,0,0,.53-.3h0A1.93,1.93,0,0,1,469.35,85.23Z"/></g><path class="cls-9" d="M446.81,83.2a30.76,30.76,0,0,1,.17-6.29,3.43,3.43,0,0,1,.84-2.22c.95-.86,2.45-.45,3.65,0l18,6.81c.59.22,1.22.47,1.27,1.33a2,2,0,0,1-1.09,1.82,25.35,25.35,0,0,1-21,.77,3.1,3.1,0,0,1-1.85-2.22Z"/><ellipse class="cls-2" cx="456.38" cy="70.44" rx="3.36" ry="2.41" transform="translate(129.31 396.43) rotate(-53.68)"/><ellipse class="cls-2" cx="461.55" cy="67.25" rx="1.04" ry="0.94" transform="translate(147.92 412.48) rotate(-56.04)"/><path class="cls-29" d="M487.32,283.25s.39-20.26-9.73-31.55"/><g class="cls-30"><path class="cls-31" d="M596.58,272.86a73,73,0,0,1-14.83,4.28c1.43,9.66-1.49,21.07-3.47,33.6l-4.8,22.3-5.82,24.74-8.07.39c-1.05,0-2.09.13-3.13.26a223.88,223.88,0,0,1-45.27,1.14c-3.84-.29-7.86-.75-11-3-5.31-3.75-6.24-10.89-6.31-17.58,7.47,0,15.09,1.71,22.53,3,11,1.88,23.26,2.51,32.27-4.05s12.15-18.28,13.26-29.26.79-22.4,5-32.58c2-4.73,4.87-9,7.32-13.49a79.37,79.37,0,0,0,9.19-45.48,115.68,115.68,0,0,0-5.75-24.82,117.74,117.74,0,0,1,29.62,41.58c3.33,7.86,7.23,16.88,8.7,26.61a4.63,4.63,0,0,1-2.16,4.67C608.24,268.59,600.59,271.33,596.58,272.86Z"/></g><path class="cls-22" d="M496.39,148.1s13.22,3.21,19.51,2.77c0,0-12.62,2.79-22-1.08"/><ellipse class="cls-29" cx="566.09" cy="285.78" rx="9.64" ry="7.16" transform="translate(64.86 674.25) rotate(-64.56)"/><ellipse class="cls-29" cx="570.04" cy="267.53" rx="2.63" ry="4.24"/><circle class="cls-29" cx="561.86" cy="271.39" r="2.38"/><ellipse class="cls-29" cx="544.89" cy="339.85" rx="7.16" ry="9.64" transform="translate(25.65 717.72) rotate(-68)"/><ellipse class="cls-29" cx="526.42" cy="337" rx="4.24" ry="2.63" transform="translate(-19.24 32.14) rotate(-3.43)"/><circle class="cls-29" cx="530.77" cy="344.94" r="2.38"/><path class="cls-32" d="M468.44,169.67a5.85,5.85,0,0,1-5.71-4.62l-5.06-23.62a18.65,18.65,0,0,1,36.48-7.82l5.06,23.62a5.84,5.84,0,0,1-11.43,2.45l-5.06-23.62A7,7,0,0,0,469.1,139l5.07,23.62a5.85,5.85,0,0,1-4.5,6.94A5.71,5.71,0,0,1,468.44,169.67Z"/><path class="cls-33" d="M581.66,276.52s-11.62-9.93-17-23.56"/><ellipse class="cls-2" cx="537.34" cy="364.13" rx="1.67" ry="2.2"/><ellipse class="cls-2" cx="536.96" cy="376.91" rx="1.67" ry="2.2" transform="translate(-21.61 32.84) rotate(-3.43)"/><ellipse class="cls-2" cx="537.85" cy="386.14" rx="1.67" ry="2.2" transform="translate(-83.24 156.71) rotate(-15.4)"/><path class="cls-34" d="M512.63,221.1H528.4a0,0,0,0,1,0,0V513.73a7.89,7.89,0,0,1-7.89,7.89h0a7.89,7.89,0,0,1-7.89-7.89V221.1a0,0,0,0,1,0,0Z" transform="translate(88.47 842.71) rotate(-83)"/><path class="cls-35" d="M669.66,389.68a7.9,7.9,0,0,1-8.79,6.87L370.42,360.87l.85-6.95,290,35.62a7.88,7.88,0,0,0,7.82-3.94A7.78,7.78,0,0,1,669.66,389.68Z"/><path class="cls-36" d="M372.91,350.14s24.2,3.26,43.94-1-.78-.53-.78-.53,68.14,19.93,100.86,20.23a596.59,596.59,0,0,1,65.14,4.67S647.5,392.2,668,383.44"/><path class="cls-36" d="M370.87,356.86s25.53,7.76,45.28,3.5-.3,1.17-.3,1.17,92.31,11.69,125,12,40,11.39,40,11.39,68.06,14,88.51,5.26"/><rect class="cls-11" x="400.86" y="345.17" width="36.81" height="26.16" rx="7.64" transform="translate(115.31 -101.9) rotate(16.04)"/><ellipse class="cls-2" cx="409.36" cy="350.33" rx="3.36" ry="2.41" transform="translate(-127.11 400.44) rotate(-45.89)"/><ellipse class="cls-2" cx="414.91" cy="347.87" rx="1.04" ry="0.94" transform="translate(-120.9 425.78) rotate(-48.25)"/><path class="cls-12" d="M438.45,357.7l-3,10.46a7.63,7.63,0,0,1-9.45,5.23l-20.69-5.95a7.63,7.63,0,0,1-5.23-9.45l.17-.6a7.52,7.52,0,0,0,3.46,2.13l20.7,6a7.65,7.65,0,0,0,9.45-5.23l2.83-9.86A7.6,7.6,0,0,1,438.45,357.7Z"/><rect class="cls-11" x="553.73" y="366.21" width="36.81" height="26.16" rx="7.64" transform="translate(60.38 -78.22) rotate(8.25)"/><path class="cls-12" d="M591.13,376.59l-1.56,10.78a7.64,7.64,0,0,1-8.65,6.46l-21.31-3.1a7.62,7.62,0,0,1-6.46-8.65l.29-2a7.6,7.6,0,0,0,6.17,5.24l21.31,3.09a7.64,7.64,0,0,0,8.65-6.46l1.27-8.78A7.5,7.5,0,0,1,591.13,376.59Z"/><rect class="cls-37" x="350.4" y="339.61" width="27.5" height="25.14" rx="3.18" transform="translate(52.09 -46.89) rotate(7.93)"/><path class="cls-32" d="M458.86,146.61s-2.14,12.51-.63,21.29c0,0-.17-14.7,5.72-19.25"/><path class="cls-32" d="M460.81,142.63s-2.14,12.51-.63,21.29c0,0-.16-14.7,5.72-19.25"/><path class="cls-32" d="M457.83,138s-2.14,12.51-.64,21.3c0,0-.16-14.71,5.73-19.26"/><path class="cls-32" d="M459.78,134s-2.14,12.51-.64,21.3c0,0-.16-14.71,5.73-19.26"/><path class="cls-32" d="M485.78,145.64s-2.14,12.51-.63,21.29c0,0-.17-14.7,5.72-19.25"/><path class="cls-32" d="M487.73,141.66s-2.14,12.51-.63,21.29c0,0-.17-14.7,5.72-19.25"/><path class="cls-32" d="M484.74,137s-2.13,12.51-.63,21.3c0,0-.16-14.71,5.73-19.26"/><path class="cls-32" d="M486.7,133s-2.14,12.51-.64,21.3c0,0-.16-14.71,5.73-19.26"/><path class="cls-32" d="M494.9,140.36s6.69,11.28,8.14,20.4c0,0-5-14.33-12.93-16.38"/><path class="cls-32" d="M491.4,137.29s6.69,11.27,8.14,20.39c0,0-5-14.32-12.93-16.37"/><path class="cls-32" d="M493,131.55s6.69,11.28,8.14,20.4c0,0-5-14.33-12.93-16.38"/><path class="cls-32" d="M489.48,128.47s6.7,11.28,8.14,20.4c0,0-5-14.33-12.92-16.38"/><path class="cls-32" d="M470.78,147.75s6.56,11.35,7.9,20.49c0,0-4.81-14.39-12.74-16.53"/><path class="cls-32" d="M467.31,144.63s6.56,11.35,7.9,20.49c0,0-4.8-14.38-12.74-16.52"/><path class="cls-32" d="M469,138.92s6.57,11.35,7.91,20.49c0,0-4.81-14.39-12.74-16.53"/><path class="cls-32" d="M465.5,135.8s6.56,11.35,7.9,20.49c0,0-4.81-14.39-12.74-16.53"/><path class="cls-38" d="M460.3,140.08s-.76-14.21,13.47-15.84"/><path class="cls-26" d="M529.55,183.7c-8.12,6.1-8.15,31-8.15,31A48.13,48.13,0,0,0,512.23,187l6.08.73Z"/><ellipse class="cls-9" cx="468.43" cy="98.5" rx="4.41" ry="7.89"/><ellipse class="cls-2" cx="465.47" cy="102.54" rx="1.61" ry="2.47"/><circle class="cls-2" cx="485.34" cy="573.07" r="4.55"/><circle class="cls-2" cx="597.25" cy="559.06" r="4.55"/><path class="cls-2" d="M725.88,569.5c-3.34-.37-6.66-.93-10-1.59-1.88-.37-2.69,2.52-.79,2.9,3.56.71,7.14,1.29,10.75,1.69,1.92.21,1.91-2.79,0-3Z"/><path class="cls-15" d="M470.94,459.85c0,8.8-6.8,15.94-15.2,15.94s-15.19-7.14-15.19-15.94a16.07,16.07,0,0,1,.22-2.71,15.08,15.08,0,0,0,29.94,0A16.07,16.07,0,0,1,470.94,459.85Z"/><path class="cls-15" d="M635.1,479.23c0,8.8-6.8,15.94-15.2,15.94s-15.19-7.14-15.19-15.94a16,16,0,0,1,.23-2.7,15.08,15.08,0,0,0,29.93,0A16,16,0,0,1,635.1,479.23Z"/><path class="cls-39" d="M467,220c6.89-13.27,15.43-24.93,36.27-27.67,0,0-31,27.48-41.56,75.2h0C459,251.57,459.57,234.37,467,220Z"/><ellipse class="cls-29" cx="470.26" cy="235.36" rx="5.02" ry="6.76" transform="translate(-40.31 109.42) rotate(-12.73)"/><ellipse class="cls-29" cx="494.68" cy="200.57" rx="2.97" ry="1.84" transform="translate(-11.13 29.99) rotate(-3.43)"/><circle class="cls-29" cx="490.17" cy="207.48" r="1.67"/><ellipse class="cls-40" cx="416.82" cy="568.52" rx="9.87" ry="5.64" transform="translate(-228.42 284.58) rotate(-30)"/><path class="cls-41" d="M444.38,573.07s-1.16-12.66-7.62-14"/><path class="cls-41" d="M451.16,573.07s-1.17-12.66-7.62-14"/><path class="cls-41" d="M457.58,573.07s-1.17-12.66-7.62-14"/><path class="cls-41" d="M645.66,570.62s1.16-12.66,7.61-14"/><path class="cls-41" d="M638.88,570.62s1.17-12.66,7.62-14"/><path class="cls-41" d="M632.46,570.62s1.17-12.66,7.62-14"/><path class="cls-22" d="M522.73,90.77a12.7,12.7,0,0,0,11.16-7.47c.41-.87-.88-1.63-1.3-.76-1.81,3.82-5.51,6.73-9.86,6.73a.75.75,0,0,0,0,1.5Z"/><path class="cls-22" d="M523.32,90A38.55,38.55,0,0,1,531,94.76a.32.32,0,0,0,.48-.4c-1.17-2-3.1-5-4.62-5.71"/><ellipse class="cls-2" cx="166.09" cy="506.06" rx="5.28" ry="2.04" transform="translate(-341.93 346.07) rotate(-54.35)"/><ellipse class="cls-2" cx="164.05" cy="514.56" rx="2.26" ry="0.87" transform="translate(-349.69 347.96) rotate(-54.35)"/><path class="cls-42" d="M111.35,449.92h28.84q10.26,0,15.6,4.94t5.34,14.22a19.3,19.3,0,0,1-2,9.34,17,17,0,0,1-6.17,6.27,23.4,23.4,0,0,1,7.06,2.42,15.43,15.43,0,0,1,4.74,4,15,15,0,0,1,2.62,5.33,24.81,24.81,0,0,1,.79,6.32,22.36,22.36,0,0,1-1.83,9.29,18.88,18.88,0,0,1-5.13,6.81,21.88,21.88,0,0,1-8.05,4.15,38.22,38.22,0,0,1-10.67,1.38H111.35Zm19.35,29.24h3.56q9.09,0,9.09-7.21t-9.09-7.21H130.7Zm0,30.22H135q7.31,0,10.47-1.88a7.32,7.32,0,0,0,0-12.05q-3.16-1.87-10.47-1.87H130.7Z"/><path class="cls-43" d="M68.6,608a173.57,173.57,0,0,0,29.94-48.92c4.1,3,12.2,11.94,16.3,14.91,4.31-3.2,4.14-13.06,7.3-17.39,2,.82,11.3,8,13.36,8.81,12.11-22.79,17.43-51.72,30.33-74.07,35,32.13,70.39,64.8,95.45,105.14-62.92,15.8-126.51,17.92-191.12,12.07"/><path class="cls-44" d="M261.28,596.27c-62.92,15.8-126.51,17.92-191.12,12.07l-1.55-.56a113.22,113.22,0,0,0,7.8-9.44c59.2,4.35,145.94,3.84,162.57-33C242.47,569.89,258.89,589.53,261.28,596.27Z"/><path class="cls-44" d="M214.29,562.17a42.3,42.3,0,0,1-7.36,14,50.3,50.3,0,0,1-11.66,10.93,48.14,48.14,0,0,1-14.58,6.61,44.89,44.89,0,0,1-15.75,1.21,98.93,98.93,0,0,0,14.79-4.21A68.1,68.1,0,0,0,193,583.74a73,73,0,0,0,11.53-9.66c1.76-1.82,3.48-3.7,5.08-5.7S212.82,564.34,214.29,562.17Z"/><path class="cls-2" d="M213.72,561.27a42.46,42.46,0,0,1-7.35,14,50.55,50.55,0,0,1-11.67,10.93,48.14,48.14,0,0,1-14.58,6.61A44.89,44.89,0,0,1,164.37,594a98.93,98.93,0,0,0,14.79-4.21,68.1,68.1,0,0,0,13.31-6.93A73.56,73.56,0,0,0,204,573.18c1.76-1.82,3.48-3.7,5.08-5.7S212.25,563.44,213.72,561.27Z"/><path class="cls-44" d="M172.6,501.51a23.73,23.73,0,0,1,4.93,8,24.2,24.2,0,0,1,1.59,9.4,22.6,22.6,0,0,1-2.22,9.27,23.78,23.78,0,0,1-2.37,4.1,6,6,0,0,1-.72.94l-.78.89c-.52.58-1.05,1.16-1.58,1.72.37-.69.75-1.38,1.13-2a18.86,18.86,0,0,0,1.11-2,37.26,37.26,0,0,0,1.77-4.19,26.76,26.76,0,0,0,1.66-8.74,29.36,29.36,0,0,0-1.07-8.86A39.65,39.65,0,0,0,172.6,501.51Z"/><path class="cls-2" d="M172,501.48a25.39,25.39,0,0,1,4,8.2,29.14,29.14,0,0,1,1.19,9.15l0,1.16-.13,1.16c-.11.76-.15,1.54-.32,2.29a27,27,0,0,1-1.28,4.45,15.85,15.85,0,0,1-.87,2.13l-1.07,2a15,15,0,0,1-1.26,1.91c-.44.62-.89,1.23-1.36,1.82.29-.7.58-1.4.88-2.09a19.4,19.4,0,0,0,.85-2.06,38.29,38.29,0,0,0,1.35-4.22,35.15,35.15,0,0,0,1.25-8.64,38.89,38.89,0,0,0-.7-8.73A48.25,48.25,0,0,0,172,501.48Z"/><path class="cls-44" d="M130.87,582.75a23.61,23.61,0,0,1-9.09,2.35,24.36,24.36,0,0,1-9.45-1.27,22.79,22.79,0,0,1-8.21-4.86,24,24,0,0,1-3.21-3.48,5.94,5.94,0,0,1-.68-1l-.62-1c-.41-.67-.8-1.35-1.18-2q.84.82,1.62,1.68a17.81,17.81,0,0,0,1.6,1.65,34.27,34.27,0,0,0,3.47,2.93,26.85,26.85,0,0,0,7.85,4.17,29.31,29.31,0,0,0,8.79,1.6A40.29,40.29,0,0,0,130.87,582.75Z"/><path class="cls-2" d="M131.09,582.17a25.46,25.46,0,0,1-9,1.39A29.2,29.2,0,0,1,113,582l-1.09-.37-1.07-.47c-.7-.33-1.43-.6-2.1-1a27.75,27.75,0,0,1-3.87-2.54,16.74,16.74,0,0,1-1.78-1.47l-1.62-1.62a13.73,13.73,0,0,1-1.46-1.77c-.46-.6-.91-1.22-1.34-1.83.59.48,1.17,1,1.74,1.45a17.75,17.75,0,0,0,1.72,1.42,37,37,0,0,0,3.63,2.54,35,35,0,0,0,7.89,3.75,39.16,39.16,0,0,0,8.54,1.92A49.09,49.09,0,0,0,131.09,582.17Z"/><rect class="cls-42" x="121.89" y="434.83" width="6.62" height="15.58"/><rect class="cls-42" x="136.6" y="434.83" width="6.62" height="15.58"/><rect class="cls-42" x="121.89" y="521.41" width="6.62" height="15.58"/><rect class="cls-42" x="136.6" y="521.41" width="6.62" height="15.58"/><path class="cls-45" d="M75.88,470.19a78.57,78.57,0,0,1,11.85-20.64"/><circle class="cls-46" cx="94.82" cy="444.68" r="2.58"/><ellipse class="cls-1" cx="545.26" cy="634.02" rx="16.59" ry="7.01"/><ellipse class="cls-1" cx="411.04" cy="530.05" rx="16.59" ry="7.01"/><ellipse class="cls-5" cx="513.14" cy="623.42" rx="7.75" ry="3.59"/><ellipse class="cls-9" cx="493.07" cy="95.12" rx="4.41" ry="7.89"/><ellipse class="cls-2" cx="490.16" cy="98.49" rx="1.61" ry="2.47"/><ellipse class="cls-2" cx="88.54" cy="588.76" rx="2.26" ry="0.87" transform="translate(-441.49 317.55) rotate(-54.35)"/><circle class="cls-2" cx="92.16" cy="584.31" r="1.43"/><ellipse class="cls-2" cx="64.31" cy="442.22" rx="3.97" ry="1.54" transform="translate(-332.52 236.73) rotate(-54.35)"/><circle class="cls-2" cx="70.67" cy="434.4" r="2.52"/><circle class="cls-44" cx="140.04" cy="593.98" r="1.54"/><circle class="cls-44" cx="202.36" cy="541.24" r="1.54"/><circle class="cls-47" cx="68.15" cy="596.71" r="1.54"/><circle class="cls-17" cx="52.06" cy="556.57" r="0.25"/><circle class="cls-17" cx="63.35" cy="559.76" r="0.81"/><circle class="cls-47" cx="78.6" cy="575.17" r="0.88"/><circle class="cls-47" cx="224.81" cy="542.78" r="0.88"/><circle class="cls-47" cx="86.05" cy="573.41" r="0.88"/><circle class="cls-17" cx="48.45" cy="559.72" r="1.54"/><circle class="cls-17" cx="41.47" cy="569.29" r="0.55"/><circle class="cls-17" cx="17.93" cy="583.7" r="0.82"/><circle class="cls-44" cx="110.53" cy="590.43" r="0.82"/><circle class="cls-44" cx="131.09" cy="586.73" r="0.82"/><circle class="cls-17" cx="56.52" cy="575.05" r="0.11"/><circle class="cls-17" cx="244.32" cy="531.19" r="1.54"/><circle class="cls-17" cx="255.01" cy="536.28" r="0.55"/><circle class="cls-17" cx="273.54" cy="556.73" r="0.82"/><circle class="cls-47" cx="261.85" cy="573.41" r="1.54"/><path class="cls-48" d="M535,54.45s18.4-14.33,14.31-32.89"/><path class="cls-49" d="M538.21,47.2s9.33-14.34,23.15-12.5"/><path class="cls-48" d="M491.17,31.57s-4-23-22.33-28.07"/><path class="cls-50" d="M487.4,38s-11.27-20.41-.22-35.87"/><path class="cls-51" d="M434.87,508.45s13.41,10.68,49.05,6.78c0,0-26.83,6.84-47,2.84"/><path class="cls-51" d="M642.62,503.55s-18.45,10.94-49.92,10.34c0,0,24.11,7.07,50.17,0"/></g></g></svg>